<svg xmlns="http://www.w3.org/2000/svg"  viewBox="0 0 64 64" width="64px" height="64px"><linearGradient id="R_A6LMo4T09~Yts2gpWZta" x1="8.5" x2="8.5" y1="39.17" y2="46.692" gradientUnits="userSpaceOnUse"><stop offset="0" stop-color="#6dc7ff"/><stop offset="1" stop-color="#e6abff"/></linearGradient><path fill="url(#R_A6LMo4T09~Yts2gpWZta)" d="M11,38.95c-2.761,0-5,2.239-5,5s2.239,5,5,5V38.95z"/><linearGradient id="R_A6LMo4T09~Yts2gpWZtb" x1="17.25" x2="17.25" y1="11" y2="53.906" gradientUnits="userSpaceOnUse"><stop offset="0" stop-color="#1a6dff"/><stop offset="1" stop-color="#c822ff"/></linearGradient><path fill="url(#R_A6LMo4T09~Yts2gpWZtb)" d="M13,29.45h2c0-3.584,2.916-6.5,6.5-6.5v-2C16.813,20.95,13,24.763,13,29.45z"/><linearGradient id="R_A6LMo4T09~Yts2gpWZtc" x1="36.55" x2="36.55" y1="11" y2="53.906" gradientUnits="userSpaceOnUse"><stop offset="0" stop-color="#1a6dff"/><stop offset="1" stop-color="#c822ff"/></linearGradient><path fill="url(#R_A6LMo4T09~Yts2gpWZtc)" d="M36.55,15.95c-1.843,0-3.561,0.912-4.597,2.439l1.656,1.122 c0.662-0.978,1.762-1.561,2.94-1.561c1.18,0,2.279,0.583,2.941,1.561l1.656-1.122C40.111,16.861,38.394,15.95,36.55,15.95z"/><linearGradient id="R_A6LMo4T09~Yts2gpWZtd" x1="32.001" x2="32.001" y1="11" y2="53.906" gradientUnits="userSpaceOnUse"><stop offset="0" stop-color="#1a6dff"/><stop offset="1" stop-color="#c822ff"/></linearGradient><path fill="url(#R_A6LMo4T09~Yts2gpWZtd)" d="M58.442,30.476C58.81,29.512,59,28.484,59,27.45c0-4.687-3.813-8.5-8.5-8.5 c-1.276,0-2.513,0.282-3.645,0.825c-0.827-4.941-5.141-8.724-10.306-8.724c-4.477,0-8.459,2.889-9.888,7.087 c-2.189-0.993-4.683-1.382-7.236-0.969c-5.165,0.833-9.378,5.02-10.245,10.181c-0.447,2.667-0.051,5.343,1.119,7.699 c-4.173,0.418-7.619,3.556-8.204,7.624c-0.375,2.614,0.39,5.246,2.101,7.22C5.908,51.867,8.388,53,11,53h37.253 c3.93,0,7.235-2.823,7.69-6.565c0.19-1.564-0.117-3.129-0.845-4.485H56c3.309,0,6-2.691,6-6C62,33.566,60.56,31.426,58.442,30.476z M53.957,46.193C53.625,48.934,51.173,51,48.253,51H11c-2.031,0-3.961-0.881-5.292-2.418c-1.351-1.558-1.93-3.556-1.632-5.626 C4.563,39.561,7.647,37,11.25,37H16v-2h-3.427c-1.34-2.172-1.852-4.748-1.42-7.321c0.727-4.328,4.26-7.838,8.591-8.537 c5.599-0.903,10.885,2.699,12.033,8.204L32,28.414V33h2v-5.317c1.024-0.411,2.096-0.643,3.2-0.678 c4.228-0.132,8.046,2.686,9.382,6.851c0.433,1.35,0.509,2.716,0.271,4.144H44v2h4.5c1.573,0,3.074,0.676,4.118,1.855 C53.677,43.049,54.152,44.59,53.957,46.193z M56,39.95h-2.461c-1.276-1.158-2.917-1.848-4.645-1.939 c0.223-1.628,0.087-3.226-0.407-4.766c-1.608-5.012-6.298-8.394-11.349-8.239c-1.278,0.04-2.522,0.29-3.711,0.745 c-0.872-2.791-2.673-5.085-4.985-6.626c1.048-3.581,4.366-6.074,8.108-6.074c4.64,0,8.429,3.775,8.448,8.415L45,24.95h2v-2.944 c1.051-0.68,2.246-1.056,3.5-1.056c3.584,0,6.5,2.916,6.5,6.5c0,0.859-0.178,1.71-0.507,2.5H54v2h2.408l0.446,0.097 C58.677,32.444,60,34.085,60,35.95C60,38.155,58.206,39.95,56,39.95z"/></svg>