<?xml version="1.0" encoding="iso-8859-1"?>
<!-- Generator: Adobe Illustrator 24.1.2, SVG Export Plug-In . SVG Version: 6.00 Build 0)  -->
<svg version="1.1" id="Layer_2" xmlns="http://www.w3.org/2000/svg" xmlns:xlink="http://www.w3.org/1999/xlink" x="0px" y="0px"
	 viewBox="0 0 48 48" style="enable-background:new 0 0 48 48;" xml:space="preserve">
<path style="fill:#199BE2;" d="M31.001,37.124c-0.346,0-0.682-0.179-0.867-0.5l-14-24.248c-0.276-0.479-0.112-1.09,0.366-1.366
	c0.477-0.276,1.089-0.113,1.366,0.366l14,24.248c0.276,0.479,0.112,1.09-0.366,1.366C31.343,37.081,31.171,37.124,31.001,37.124z"/>
<path style="fill:#199BE2;" d="M16.999,37.124c-0.17,0-0.342-0.043-0.499-0.134c-0.479-0.276-0.643-0.888-0.366-1.366l14-24.248
	c0.275-0.479,0.889-0.643,1.366-0.366c0.479,0.276,0.643,0.888,0.366,1.366l-14,24.248C17.681,36.945,17.345,37.124,16.999,37.124z"
	/>
<path style="fill:#199BE2;" d="M38,25H10c-0.553,0-1-0.447-1-1s0.447-1,1-1h28c0.553,0,1,0.447,1,1S38.553,25,38,25z"/>
<path style="fill:#35C1F1;" d="M24,38.685c-0.553,0-1-0.447-1-1V10.315c0-0.553,0.447-1,1-1s1,0.447,1,1v27.369
	C25,38.237,24.553,38.685,24,38.685z"/>
<path style="fill:#195BBC;" d="M24,11.315c-0.256,0-0.512-0.098-0.707-0.293l-4.211-4.21c-0.391-0.391-0.391-1.023,0-1.414
	s1.023-0.391,1.414,0L24,8.901l3.504-3.503c0.391-0.391,1.023-0.391,1.414,0s0.391,1.023,0,1.414l-4.211,4.21
	C24.512,11.218,24.256,11.315,24,11.315z"/>
<linearGradient id="SVGID_1_" gradientUnits="userSpaceOnUse" x1="23" y1="7.1577" x2="25" y2="7.1577">
	<stop  offset="0" style="stop-color:#3079D6"/>
	<stop  offset="1" style="stop-color:#297CD2"/>
</linearGradient>
<path style="fill:url(#SVGID_1_);" d="M24,11.315c-0.553,0-1-0.447-1-1V4c0-0.553,0.447-1,1-1s1,0.447,1,1v6.315
	C25,10.868,24.553,11.315,24,11.315z"/>
<path style="fill:#195BBC;" d="M28.211,42.895c-0.256,0-0.512-0.098-0.707-0.293L24,39.099l-3.504,3.503
	c-0.391,0.391-1.023,0.391-1.414,0s-0.391-1.023,0-1.414l4.211-4.21c0.391-0.391,1.023-0.391,1.414,0l4.211,4.21
	c0.391,0.391,0.391,1.023,0,1.414C28.723,42.797,28.467,42.895,28.211,42.895z"/>
<linearGradient id="SVGID_2_" gradientUnits="userSpaceOnUse" x1="23" y1="-22.8423" x2="25" y2="-22.8423" gradientTransform="matrix(-1 0 0 -1 48 18)">
	<stop  offset="0" style="stop-color:#3079D6"/>
	<stop  offset="1" style="stop-color:#297CD2"/>
</linearGradient>
<path style="fill:url(#SVGID_2_);" d="M24,45c-0.553,0-1-0.447-1-1v-6.315c0-0.553,0.447-1,1-1s1,0.447,1,1V44
	C25,44.553,24.553,45,24,45z"/>
<path style="fill:#35C1F1;" d="M12.15,31.842c-0.346,0-0.682-0.179-0.867-0.5c-0.276-0.479-0.112-1.09,0.366-1.366l23.701-13.684
	c0.477-0.276,1.089-0.113,1.366,0.366c0.276,0.479,0.112,1.09-0.366,1.366L12.649,31.708C12.492,31.799,12.32,31.842,12.15,31.842z"
	/>
<path style="fill:#195BBC;" d="M10.609,37.594c-0.086,0-0.173-0.011-0.26-0.034c-0.533-0.143-0.85-0.691-0.707-1.225l1.282-4.786
	l-4.786-1.282c-0.533-0.143-0.85-0.691-0.707-1.225s0.692-0.85,1.225-0.707l5.752,1.541c0.533,0.143,0.85,0.691,0.707,1.225
	l-1.541,5.752C11.455,37.299,11.051,37.594,10.609,37.594z"/>
<linearGradient id="SVGID_3_" gradientUnits="userSpaceOnUse" x1="22.9997" y1="7.1582" x2="25.0003" y2="7.1582" gradientTransform="matrix(-0.5 -0.866 0.866 -0.5 15.2154 56.7846)">
	<stop  offset="0" style="stop-color:#3079D6"/>
	<stop  offset="1" style="stop-color:#297CD2"/>
</linearGradient>
<path style="fill:url(#SVGID_3_);" d="M6.681,35c-0.346,0-0.682-0.179-0.867-0.5c-0.276-0.479-0.112-1.09,0.366-1.366l5.47-3.158
	c0.476-0.277,1.089-0.113,1.366,0.366c0.276,0.479,0.112,1.09-0.366,1.366l-5.47,3.158C7.022,34.957,6.851,35,6.681,35z"/>
<path style="fill:#195BBC;" d="M41.604,19.699c-0.086,0-0.173-0.011-0.26-0.034l-5.752-1.541c-0.533-0.143-0.85-0.691-0.707-1.225
	l1.541-5.752c0.143-0.532,0.691-0.849,1.225-0.707c0.533,0.143,0.85,0.691,0.707,1.225l-1.282,4.786l4.786,1.282
	c0.533,0.143,0.85,0.691,0.707,1.225C42.449,19.404,42.045,19.699,41.604,19.699z"/>
<linearGradient id="SVGID_4_" gradientUnits="userSpaceOnUse" x1="22.9997" y1="-22.8418" x2="25.0003" y2="-22.8418" gradientTransform="matrix(0.5 0.866 -0.866 0.5 6.8038 6.2154)">
	<stop  offset="0" style="stop-color:#3079D6"/>
	<stop  offset="1" style="stop-color:#297CD2"/>
</linearGradient>
<path style="fill:url(#SVGID_4_);" d="M35.852,18.158c-0.346,0-0.682-0.179-0.867-0.5c-0.276-0.479-0.112-1.09,0.366-1.366
	l5.47-3.158c0.477-0.276,1.089-0.113,1.366,0.366c0.276,0.479,0.112,1.09-0.366,1.366l-5.47,3.158
	C36.193,18.115,36.021,18.158,35.852,18.158z"/>
<path style="fill:#35C1F1;" d="M35.85,31.842c-0.17,0-0.342-0.043-0.499-0.134L11.649,18.024c-0.479-0.276-0.643-0.888-0.366-1.366
	s0.888-0.643,1.366-0.366l23.701,13.684c0.479,0.276,0.643,0.888,0.366,1.366C36.531,31.662,36.195,31.842,35.85,31.842z"/>
<path style="fill:#195BBC;" d="M37.391,37.594c-0.441,0-0.846-0.294-0.965-0.741l-1.541-5.752c-0.143-0.533,0.174-1.082,0.707-1.225
	l5.752-1.541c0.533-0.144,1.082,0.173,1.225,0.707c0.143,0.533-0.174,1.082-0.707,1.225l-4.786,1.282l1.282,4.786
	c0.143,0.533-0.174,1.082-0.707,1.225C37.563,37.583,37.477,37.594,37.391,37.594z"/>
<linearGradient id="SVGID_5_" gradientUnits="userSpaceOnUse" x1="22.9997" y1="7.1582" x2="25.0003" y2="7.1582" gradientTransform="matrix(-0.5 0.866 -0.866 -0.5 56.7846 15.2154)">
	<stop  offset="0" style="stop-color:#3079D6"/>
	<stop  offset="1" style="stop-color:#297CD2"/>
</linearGradient>
<path style="fill:url(#SVGID_5_);" d="M41.319,35c-0.17,0-0.342-0.043-0.499-0.134l-5.47-3.158
	c-0.479-0.276-0.643-0.888-0.366-1.366c0.276-0.479,0.889-0.644,1.366-0.366l5.47,3.158c0.479,0.276,0.643,0.888,0.366,1.366
	C42.001,34.821,41.665,35,41.319,35z"/>
<path style="fill:#195BBC;" d="M6.396,19.699c-0.441,0-0.846-0.294-0.965-0.741c-0.143-0.533,0.174-1.082,0.707-1.225l4.786-1.282
	l-1.282-4.786C9.5,11.132,9.816,10.583,10.35,10.44c0.534-0.143,1.083,0.173,1.225,0.707l1.541,5.752
	c0.143,0.533-0.174,1.082-0.707,1.225l-5.752,1.541C6.569,19.688,6.482,19.699,6.396,19.699z"/>
<linearGradient id="SVGID_6_" gradientUnits="userSpaceOnUse" x1="22.9997" y1="-22.8418" x2="25.0003" y2="-22.8418" gradientTransform="matrix(0.5 -0.866 0.866 0.5 17.1962 47.7846)">
	<stop  offset="0" style="stop-color:#3079D6"/>
	<stop  offset="1" style="stop-color:#297CD2"/>
</linearGradient>
<path style="fill:url(#SVGID_6_);" d="M12.148,18.158c-0.17,0-0.342-0.043-0.499-0.134l-5.47-3.158
	C5.701,14.59,5.537,13.979,5.813,13.5c0.275-0.479,0.889-0.643,1.366-0.366l5.47,3.158c0.479,0.276,0.643,0.888,0.366,1.366
	C12.83,17.979,12.494,18.158,12.148,18.158z"/>
<path style="fill:#35C1F1;" d="M24,34.237c-0.173,0-0.346-0.045-0.5-0.134l-8-4.618c-0.31-0.179-0.5-0.509-0.5-0.866v-9.238
	c0-0.357,0.19-0.688,0.5-0.866l8-4.618c0.309-0.178,0.691-0.178,1,0l8,4.618c0.31,0.179,0.5,0.509,0.5,0.866v9.238
	c0,0.357-0.19,0.688-0.5,0.866l-8,4.618C24.346,34.192,24.173,34.237,24,34.237z M17,28.042l7,4.041l7-4.041v-8.084l-7-4.041
	l-7,4.041V28.042z"/>
</svg>