<svg xmlns="http://www.w3.org/2000/svg"  viewBox="0 0 48 48" width="48px" height="48px"><path fill="#ff9800" d="M24,18l3-3l-3-3V7h-5l-3-3l-3,3H8v5l-3,3l3,3v5h5l3,3l3-3h5V18z"/><path fill="#ffeb3b" d="M10,15c0,3.3,2.7,6,6,6s6-2.7,6-6s-2.7-6-6-6S10,11.7,10,15"/><path fill="#2196f3" d="M18,34c0,0-5,0.9-6.2,2.1c-1.1,1.1-1.1,3,0,4.1s3,1.1,4.1,0C17.1,39,18,34,18,34z"/><path fill="#2196f3" d="M28,38c0,0-5,0.9-6.2,2.1c-1.1,1.1-1.1,3,0,4.1s3,1.1,4.1,0C27.1,43,28,38,28,38z"/><path fill="#2196f3" d="M36.9,40.2c-1.1,1.1-3,1.1-4.1,0c-1.1-1.1-1.1-3,0-4.1C34,34.9,39,34,39,34S38.1,39,36.9,40.2z"/><g><path fill="#bbdefb" d="M37.9,20.1C38,19.7,38,19.4,38,19c0-3.9-3.1-7-7-7c-2.8,0-5.2,1.6-6.3,4c-1-1.2-2.5-2-4.2-2 c-3,0-5.5,2.5-5.5,5.5c0,0.2,0,0.3,0,0.5l0,0c-3.3,0-6,2.7-6,6s2.7,6,6,6h0.1l0,0H37c3.3,0,6-2.7,6-6C43,23,40.8,20.5,37.9,20.1z"/></g></svg>