<svg xmlns="http://www.w3.org/2000/svg"  viewBox="0 0 80 80" width="80px" height="80px"><path d="M 40 6 C 31.930187 6 25.21248 11.656534 23.482422 19.212891 C 18.594954 19.846429 14.693788 23.364425 13.488281 28.052734 C 6.0095081 28.328921 0 34.454863 0 42 C 0 49.72039 6.27961 56 14 56 L 20 56 A 1.0001 1.0001 0 1 0 20 54 L 14 54 C 7.36039 54 2 48.63961 2 42 C 2 35.36039 7.36039 30 14 30 C 13.97025 30 14.0317 30.009766 14.189453 30.009766 L 15.023438 30.009766 L 15.025391 29.994141 C 15.564872 29.979756 16 29.542933 16 29 C 16 28.608772 15.769016 28.277556 15.441406 28.113281 C 16.620249 24.203308 20.115447 21.30624 24.349609 21.033203 L 24.970703 20.994141 C 24.981027 20.994456 24.9896 21 25 21 C 25.020133 21 25.036801 20.989457 25.056641 20.988281 L 25.125 20.984375 L 25.126953 20.974609 C 25.616186 20.909536 26 20.506933 26 20 C 26 19.640109 25.799202 19.33825 25.513672 19.162109 C 27.209666 12.740381 33.034315 8 40 8 C 46.433135 8 51.888211 12.047962 54.025391 17.724609 L 54.044922 17.775391 C 54.027264 17.849747 54 17.920267 54 18 C 54 18.552 54.448 19 55 19 C 55.479867 19 55.862305 18.654256 55.958984 18.203125 C 56.627275 18.083984 57.304494 18 58 18 C 64.63961 18 70 23.36039 70 30 C 70 31.051177 69.851543 32.070721 69.591797 33.056641 L 69.330078 34.046875 L 70.326172 34.283203 C 74.723841 35.332864 78 39.269546 78 44 C 78 49.534534 73.534534 54 68 54 L 56 54 A 1.0001 1.0001 0 1 0 56 56 L 68 56 C 74.615466 56 80 50.615466 80 44 C 80 38.672143 76.459385 34.258886 71.640625 32.699219 C 71.819165 31.820605 72 30.939119 72 30 C 72 22.27961 65.72039 16 58 16 C 57.131846 16 56.313684 16.153389 55.498047 16.306641 C 52.885208 10.277004 46.980544 6 40 6 z M 29 19 C 28.448 19 28 19.448 28 20 C 28 20.552 28.448 21 29 21 C 29.552 21 30 20.552 30 20 C 30 19.448 29.552 19 29 19 z M 33 21 C 32.448 21 32 21.448 32 22 C 32 22.552 32.448 23 33 23 C 33.552 23 34 22.552 34 22 C 34 21.448 33.552 21 33 21 z M 56 21 C 55.448 21 55 21.448 55 22 C 55 22.552 55.448 23 56 23 C 56.552 23 57 22.552 57 22 C 57 21.448 56.552 21 56 21 z M 36 24 C 35.448 24 35 24.448 35 25 C 35 25.552 35.448 26 36 26 C 36.552 26 37 25.552 37 25 C 37 24.448 36.552 24 36 24 z M 56 25 C 55.448 25 55 25.448 55 26 C 55 26.552 55.448 27 56 27 C 56.552 27 57 26.552 57 26 C 57 25.448 56.552 25 56 25 z M 19 28 C 18.448 28 18 28.448 18 29 C 18 29.552 18.448 30 19 30 C 19.552 30 20 29.552 20 29 C 20 28.448 19.552 28 19 28 z M 23 30 C 22.448 30 22 30.448 22 31 C 22 31.552 22.448 32 23 32 C 23.552 32 24 31.552 24 31 C 24 30.448 23.552 30 23 30 z M 26 33 C 25.448 33 25 33.448 25 34 C 25 34.552 25.448 35 26 35 C 26.552 35 27 34.552 27 34 C 27 33.448 26.552 33 26 33 z M 69 36 C 68.448 36 68 36.448 68 37 C 68 37.552 68.448 38 69 38 C 69.552 38 70 37.552 70 37 C 70 36.448 69.552 36 69 36 z M 67 39 C 66.448 39 66 39.448 66 40 C 66 40.552 66.448 41 67 41 C 67.552 41 68 40.552 68 40 C 68 39.448 67.552 39 67 39 z M 50.130859 42.007812 L 49.283203 42.302734 L 49.085938 42.59375 L 47.867188 45.335938 L 47.910156 46.230469 L 48.650391 46.732422 L 49.498047 46.439453 L 49.695312 46.148438 L 50.914062 43.40625 L 50.873047 42.511719 L 50.130859 42.007812 z M 36.162109 42.013672 L 35.306641 42.279297 L 35.099609 42.564453 L 33.794922 45.267578 L 33.808594 46.162109 L 34.533203 46.689453 L 35.388672 46.421875 L 35.595703 46.136719 L 36.900391 43.435547 L 36.886719 42.539062 L 36.162109 42.013672 z M 41.146484 46.011719 L 40.294922 46.291016 L 40.09375 46.578125 L 38.830078 49.300781 L 38.855469 50.195312 L 39.589844 50.710938 L 40.441406 50.431641 L 40.644531 50.142578 L 41.90625 47.421875 L 41.880859 46.525391 L 41.146484 46.011719 z M 32.248047 50.117188 L 31.392578 50.384766 L 31.1875 50.669922 L 29.882812 53.371094 L 29.896484 54.267578 L 30.621094 54.792969 L 31.476562 54.527344 L 31.683594 54.242188 L 32.988281 51.539062 L 32.974609 50.644531 L 32.248047 50.117188 z M 46.474609 50.232422 L 45.628906 50.525391 L 45.431641 50.818359 L 44.212891 53.560547 L 44.253906 54.455078 L 44.996094 54.957031 L 45.841797 54.664062 L 46.041016 54.371094 L 47.257812 51.630859 L 47.216797 50.736328 L 46.474609 50.232422 z M 37.357422 54.173828 L 36.505859 54.453125 L 36.302734 54.742188 L 35.039062 57.462891 L 35.066406 58.359375 L 35.800781 58.873047 L 36.650391 58.59375 L 36.853516 58.304688 L 38.117188 55.583984 L 38.089844 54.689453 L 37.357422 54.173828 z M 28.335938 58.222656 L 27.480469 58.490234 L 27.273438 58.775391 L 25.96875 61.476562 L 25.982422 62.373047 L 26.708984 62.898438 L 27.564453 62.630859 L 27.771484 62.345703 L 29.074219 59.644531 L 29.0625 58.748047 L 28.335938 58.222656 z M 42.820312 58.457031 L 41.972656 58.75 L 41.775391 59.042969 L 40.556641 61.783203 L 40.599609 62.679688 L 41.339844 63.181641 L 42.1875 62.888672 L 42.384766 62.595703 L 43.603516 59.855469 L 43.5625 58.958984 L 42.820312 58.457031 z M 33.566406 62.337891 L 32.714844 62.617188 L 32.513672 62.904297 L 31.25 65.626953 L 31.277344 66.521484 L 32.009766 67.037109 L 32.861328 66.755859 L 33.064453 66.46875 L 34.326172 63.748047 L 34.300781 62.851562 L 33.566406 62.337891 z M 24.423828 66.328125 L 23.568359 66.59375 L 23.361328 66.880859 L 22.056641 69.582031 L 22.070312 70.478516 L 22.794922 71.003906 L 23.650391 70.736328 L 23.857422 70.451172 L 25.162109 67.75 L 25.148438 66.853516 L 24.423828 66.328125 z M 39.164062 66.681641 L 38.318359 66.974609 L 38.121094 67.267578 L 37.085938 69.59375 L 37.126953 70.488281 L 37.869141 70.992188 L 38.716797 70.697266 L 38.914062 70.40625 L 39.947266 68.078125 L 39.90625 67.183594 L 39.164062 66.681641 z M 29.777344 70.5 L 28.925781 70.779297 L 28.722656 71.068359 L 27.458984 73.789062 L 27.486328 74.685547 L 28.220703 75.199219 L 29.070312 74.919922 L 29.273438 74.630859 L 30.537109 71.910156 L 30.509766 71.015625 L 29.777344 70.5 z"/></svg>