<svg xmlns="http://www.w3.org/2000/svg" xmlns:xlink="http://www.w3.org/1999/xlink" viewBox="0,0,256,256" width="64px" height="64px" fill-rule="nonzero"><g fill="none" fill-rule="nonzero" stroke="none" stroke-width="1" stroke-linecap="butt" stroke-linejoin="miter" stroke-miterlimit="10" stroke-dasharray="" stroke-dashoffset="0" font-family="none" font-weight="none" font-size="none" text-anchor="none" style="mix-blend-mode: normal"><g transform="scale(4,4)"><path d="M49.24854,49.10742c-0.46337,-0.26791 -0.74869,-0.7626 -0.74854,-1.29785v-9.80957c0,-0.82843 -0.67157,-1.5 -1.5,-1.5c-0.82843,0 -1.5,0.67157 -1.5,1.5v9.80957c0.00015,0.53525 -0.28517,1.02994 -0.74854,1.29785c-1.76451,1.01786 -2.6252,3.0941 -2.09834,5.06183c0.52686,1.96773 2.30985,3.33613 4.34688,3.33613c2.03704,0 3.82003,-1.3684 4.34688,-3.33613c0.52686,-1.96773 -0.33384,-4.04397 -2.09834,-5.06183zM47,55c-1.10457,0 -2,-0.89543 -2,-2c0,-1.10457 0.89543,-2 2,-2c1.10457,0 2,0.89543 2,2c0,1.10457 -0.89543,2 -2,2z" fill="#e2870c"></path><path d="M47,30.5c-3.21956,-0.00711 -6.36971,0.93555 -9.05615,2.71l-4.03174,-1.15234c-0.52373,-0.14889 -1.08701,-0.00253 -1.47202,0.38247c-0.385,0.385 -0.53136,0.94829 -0.38247,1.47202l1.15238,4.03121c-4.14685,6.31587 -3.47353,14.64153 1.63438,20.20893c5.1079,5.5674 13.34491,6.95364 19.99375,3.36483c6.64884,-3.58881 10.01021,-11.23545 8.15909,-18.56075c-1.85113,-7.3253 -8.44164,-12.45706 -15.99721,-12.45637zM46.98389,60.499c-0.29567,-0.00023 -0.59109,-0.01751 -0.88477,-0.05175c-3.04112,-0.36585 -5.55376,-2.54508 -6.34597,-5.50391c-0.79221,-2.95883 0.29538,-6.102 2.74685,-7.93846v-9.00488c0,-2.48528 2.01472,-4.5 4.5,-4.5c2.48528,0 4.5,2.01472 4.5,4.5v9.00684c2.58496,1.93735 3.63775,5.31299 2.61239,8.37632c-1.02536,3.06333 -3.89814,5.125 -7.1285,5.11584zM56.00049,46.5h-1.00049c-0.82843,0 -1.5,-0.67157 -1.5,-1.5c0,-0.82843 0.67157,-1.5 1.5,-1.5h1.00049c0.82843,0 1.5,0.67157 1.5,1.5c0,0.82843 -0.67157,1.5 -1.5,1.5zM56.00049,40.5h-1.00049c-0.82843,0 -1.5,-0.67157 -1.5,-1.5c0,-0.82843 0.67157,-1.5 1.5,-1.5h1.00049c0.82843,0 1.5,0.67157 1.5,1.5c0,0.82843 -0.67157,1.5 -1.5,1.5z" fill="#e2870c"></path><path d="M34.90332,14c-0.11689,-7.48971 -6.22178,-13.50006 -13.7124,-13.50006c-7.49062,0 -13.59551,6.01034 -13.7124,13.50006c0.02081,4.83605 2.63368,9.28945 6.84509,11.66681c-8.19364,2.73867 -13.74589,10.37596 -13.82361,19.01483v13.31836c0.00004,0.82841 0.67159,1.49996 1.5,1.5h26.02881c0.82843,0 1.5,-0.67157 1.5,-1.5c0,-0.82843 -0.67157,-1.5 -1.5,-1.5h-5.33789v-18.10663l5.37231,-9.52923c0.58762,0.23915 1.16194,0.50976 1.72046,0.81066c0.72758,0.39588 1.63832,0.12698 2.0342,-0.6006c0.39588,-0.72758 0.12698,-1.63832 -0.6006,-2.0342c-1.01037,-0.5458 -2.06432,-1.00674 -3.151,-1.37805c4.20689,-2.37848 6.81625,-6.82928 6.83703,-11.66195zM19.69092,56.5h-16.19092v-11.81836c0.05969,-6.98103 4.33085,-13.23433 10.81189,-15.82941l5.379,9.54114zM21.19092,34.94531l-3.94623,-6.99908c2.59749,-0.59444 5.29564,-0.59498 7.89337,-0.00159zM21.19092,24.5c-4.89317,0.02452 -9.17724,-3.27904 -10.3974,-8.0177c4.03929,-0.08057 7.83995,-1.92892 10.3974,-5.05652c2.55744,3.1276 6.3581,4.97596 10.3974,5.05652c-1.22016,4.73866 -5.50424,8.04222 -10.3974,8.0177zM22.50049,8.03027c-0.26536,-0.47411 -0.76625,-0.76778 -1.30957,-0.76778c-0.54332,0 -1.04421,0.29366 -1.30957,0.76778c-1.90869,3.38241 -5.49311,5.47261 -9.37689,5.468c0.37476,-5.62627 5.04772,-9.99833 10.68646,-9.99833c5.63874,0 10.3117,4.37206 10.68646,9.99833c-3.88378,0.00461 -7.4682,-2.08559 -9.37689,-5.468z" fill="#000000"></path><path d="M10.04834,39.5c-0.82843,0 -1.5,0.67157 -1.5,1.5c0,0.82843 0.67157,1.5 1.5,1.5h4c0.82843,0 1.5,-0.67157 1.5,-1.5c0,-0.82843 -0.67157,-1.5 -1.5,-1.5z" fill="#000000"></path></g></g></svg>