<svg xmlns="http://www.w3.org/2000/svg"  viewBox="0 0 100 100" width="100px" height="100px"><path fill="#fdf5a9" d="M60,32.1c-11,0-20,8.9-20,20s9,20,20,20s20-8.9,20-20S71,32.1,60,32.1z"/><path fill="none" stroke="#1f212b" stroke-linecap="round" stroke-miterlimit="10" stroke-width="2" d="M79.4,56.7c0.4-1.5,0.6-3.1,0.6-4.7c0-11-9-20-20-20c-7.5,0-14,4.1-17.5,10.2"/><path fill="#8eb4da" d="M80.1,64c-0.9,0-1.7,0.1-2.6,0.4c-0.5-7.1-6-12.6-12.7-12.6c-3.9,0-7.3,1.9-9.7,4.8C52.3,50.3,46.4,46,39.5,46	c-9.5,0-17.2,8.1-17.5,18.2c-0.7-0.2-1.4-0.3-2.2-0.3c-5.5,0-9.9,4.8-9.9,10.6c0,5.9,4.4,10.6,9.9,10.6c0.6,0,59.6,0,60.3,0	c5.5,0,9.9-4.8,9.9-10.6C90,68.7,85.6,64,80.1,64z"/><path fill="#1f212b" d="M80.1,62.8c-0.6,0-1.1,0-1.7,0.1c-1.1-7-6.8-12.3-13.6-12.3c-3.5,0-6.9,1.4-9.4,4c-3.3-6-9.3-9.7-15.9-9.7	c-9.7,0-17.6,7.8-18.4,17.9c-0.4-0.1-0.8-0.1-1.2-0.1C13.9,62.8,9,68,9,74.4C9,80.8,13.9,86,19.9,86h60.2c6,0,10.9-5.2,10.9-11.6	C91,68,86.1,62.8,80.1,62.8z M80.1,84H19.9C15,84,11,79.7,11,74.4s4-9.5,8.9-9.5c0.6,0,1.3,0.1,1.9,0.2c0.3,0.1,0.6,0,0.9-0.2	c0.2-0.2,0.4-0.5,0.4-0.8C23.4,54.6,30.6,47,39.5,47c6.3,0,11.9,3.8,14.7,9.8c0.1,0.3,0.4,0.5,0.8,0.6c0.3,0,0.7-0.1,0.9-0.4	c2.2-2.8,5.5-4.4,8.9-4.4c6.1,0,11.2,5.1,11.7,11.6c0,0.3,0.2,0.6,0.4,0.8c0.2,0.2,0.6,0.2,0.9,0.1c0.8-0.2,1.5-0.3,2.3-0.3	c4.9,0,8.9,4.3,8.9,9.5S85,84,80.1,84z"/><line x1="60" x2="60" y1="21" y2="28" fill="none" stroke="#1f212b" stroke-linecap="round" stroke-linejoin="round" stroke-miterlimit="10" stroke-width="2"/><line x1="38.1" x2="43" y1="30.1" y2="35" fill="none" stroke="#1f212b" stroke-linecap="round" stroke-linejoin="round" stroke-miterlimit="10" stroke-width="2"/><line x1="91" x2="84" y1="52" y2="52" fill="none" stroke="#1f212b" stroke-linecap="round" stroke-linejoin="round" stroke-miterlimit="10" stroke-width="2"/><line x1="81.9" x2="77" y1="30.1" y2="35" fill="none" stroke="#1f212b" stroke-linecap="round" stroke-linejoin="round" stroke-miterlimit="10" stroke-width="2"/><path fill="none" stroke="#1f212b" stroke-linecap="round" stroke-miterlimit="10" d="M68.1,37.6c-2.4-1.3-5.1-2.1-8.1-2.1c-6,0-11.5,3.2-14.4,8.4"/><path fill="none" stroke="#1f212b" stroke-linecap="round" stroke-miterlimit="10" d="M71.3,40c-0.5-0.5-1-0.9-1.5-1.3"/><line x1="18.5" x2="47.5" y1="80.5" y2="80.5" fill="none" stroke="#1f212b" stroke-linecap="round" stroke-linejoin="round" stroke-miterlimit="10"/><line x1="49.5" x2="50.5" y1="80.5" y2="80.5" fill="none" stroke="#1f212b" stroke-linecap="round" stroke-linejoin="round" stroke-miterlimit="10"/><line x1="52.5" x2="57.5" y1="80.5" y2="80.5" fill="none" stroke="#1f212b" stroke-linecap="round" stroke-linejoin="round" stroke-miterlimit="10"/></svg>