<svg xmlns="http://www.w3.org/2000/svg"  viewBox="0 0 512 512" width="64px" height="64px"><path fill="#5f4623" d="M440,496a8,8,0,0,1-8-8V440a8,8,0,0,1,16,0v48A8,8,0,0,1,440,496Z"/><path fill="#5f4623" d="M312,496a8,8,0,0,1-8-8V440a8,8,0,0,1,16,0v48A8,8,0,0,1,312,496Z"/><circle cx="256" cy="88" r="64" fill="#fbb540"/><rect width="96" height="248" x="264" y="192" fill="#029532" rx="48"/><rect width="96" height="200" x="392" y="240" fill="#027e2a" rx="48"/><path fill="#5f4623" d="M128,496a8,8,0,0,1-8-8V440a8,8,0,0,1,16,0v48A8,8,0,0,1,128,496Z"/><polygon fill="#029532" points="120 152 64 336 88 336 40 440 200 440 152 336 176 336 120 152"/><path fill="#eaeae8" d="M432,368H302.629A23.949,23.949,0,0,0,304,360h0a24,24,0,0,0-24-24h56a16,16,0,0,0,16-16h0a16,16,0,0,0-16-16h72a16,16,0,0,0,16-16h0a16,16,0,0,0-16-16H232a16,16,0,0,0-16,16h0a16,16,0,0,0,16,16H160a16,16,0,0,0-16,16h0a16,16,0,0,0,16,16H104a24,24,0,0,0-24,24h0a23.949,23.949,0,0,0,1.371,8H44a20,20,0,0,0-20,20h0a20,20,0,0,0,20,20H180a20,20,0,0,0,20-20h0a20.04,20.04,0,0,0-.4-4H256a16,16,0,0,0,16,16H432a16,16,0,0,0,16-16h0A16,16,0,0,0,432,368Z"/><path fill="#eaeae8" d="M48,272h88a16,16,0,0,0,16-16h0a15.9,15.9,0,0,0-2.158-8H196a20,20,0,0,0,20-20h0a20,20,0,0,0-20-20H84a20,20,0,0,0-20,20h0a19.885,19.885,0,0,0,4.027,12H48a16,16,0,0,0-16,16h0A16,16,0,0,0,48,272Z"/><path fill="#027e2a" d="M488,496H24a8,8,0,0,1,0-16H488a8,8,0,0,1,0,16Z"/><path fill="#eaeae8" d="M400,64H304a16,16,0,0,0-16,16h0a16,16,0,0,0,16,16H272a16,16,0,0,0-16,16h0a16,16,0,0,0,16,16h72a16,16,0,0,0,16-16h0a16,16,0,0,0-16-16h56a16,16,0,0,0,16-16h0A16,16,0,0,0,400,64Z"/><rect width="112" height="32" x="112" y="72" fill="#eaeae8" rx="16"/><path fill="#eaeae8" d="M464,144H416a16,16,0,0,0-16,16h0a15.9,15.9,0,0,0,2.158,8H392a16,16,0,0,0-16,16h0a16,16,0,0,0,16,16h48a16,16,0,0,0,16-16h0a15.9,15.9,0,0,0-2.158-8H464a16,16,0,0,0,16-16h0A16,16,0,0,0,464,144Z"/></svg>