<?xml version="1.0" encoding="iso-8859-1"?>
<!-- Generator: Adobe Illustrator 24.1.2, SVG Export Plug-In . SVG Version: 6.00 Build 0)  -->
<svg version="1.1" id="Layer_2" xmlns="http://www.w3.org/2000/svg" xmlns:xlink="http://www.w3.org/1999/xlink" x="0px" y="0px"
	 viewBox="0 0 48 48" style="enable-background:new 0 0 48 48;" xml:space="preserve">
<linearGradient id="SVGID_1_" gradientUnits="userSpaceOnUse" x1="21.3126" y1="6.0786" x2="25.6178" y2="31.4484">
	<stop  offset="0" style="stop-color:#FCFCFC"/>
	<stop  offset="1" style="stop-color:#C3C9CD"/>
</linearGradient>
<path style="fill:url(#SVGID_1_);" d="M34,11c-0.331,0-0.657,0.018-0.98,0.049C30.741,7.99,27.108,6,23,6
	c-5.713,0-10.52,3.837-12.012,9.071C7.049,15.569,4,18.925,4,23c0,4.418,3.582,8,8,8c1.818,0,20.107,0,22,0c5.523,0,10-4.477,10-10
	C44,15.477,39.523,11,34,11z"/>
<linearGradient id="SVGID_2_" gradientUnits="userSpaceOnUse" x1="27.0688" y1="33.5515" x2="27.7214" y2="38.0513">
	<stop  offset="0" style="stop-color:#2AA4F4"/>
	<stop  offset="0.5948" style="stop-color:#0F80E3"/>
	<stop  offset="1" style="stop-color:#006DD9"/>
</linearGradient>
<path style="fill:url(#SVGID_2_);" d="M29,36.5c0,0.828-0.672,1.5-1.5,1.5S26,37.328,26,36.5c0-0.681,1.015-2.353,1.375-2.925
	c0.058-0.093,0.191-0.093,0.25,0C27.985,34.147,29,35.819,29,36.5z"/>
<linearGradient id="SVGID_3_" gradientUnits="userSpaceOnUse" x1="25.7125" y1="41.0344" x2="26.1476" y2="44.0342">
	<stop  offset="0" style="stop-color:#2AA4F4"/>
	<stop  offset="0.5948" style="stop-color:#0F80E3"/>
	<stop  offset="1" style="stop-color:#006DD9"/>
</linearGradient>
<path style="fill:url(#SVGID_3_);" d="M27,43c0,0.552-0.448,1-1,1s-1-0.448-1-1c0-0.454,0.677-1.569,0.917-1.95
	c0.039-0.062,0.128-0.062,0.166,0C26.323,41.431,27,42.546,27,43z"/>
<linearGradient id="SVGID_4_" gradientUnits="userSpaceOnUse" x1="20.7125" y1="34.0344" x2="21.1476" y2="37.0342">
	<stop  offset="0" style="stop-color:#2AA4F4"/>
	<stop  offset="0.5948" style="stop-color:#0F80E3"/>
	<stop  offset="1" style="stop-color:#006DD9"/>
</linearGradient>
<path style="fill:url(#SVGID_4_);" d="M22,36c0,0.552-0.448,1-1,1s-1-0.448-1-1c0-0.454,0.677-1.569,0.917-1.95
	c0.039-0.062,0.128-0.062,0.166,0C21.323,34.431,22,35.546,22,36z"/>
<linearGradient id="SVGID_5_" gradientUnits="userSpaceOnUse" x1="19.0688" y1="40.5515" x2="19.7214" y2="45.0513">
	<stop  offset="0" style="stop-color:#2AA4F4"/>
	<stop  offset="0.5948" style="stop-color:#0F80E3"/>
	<stop  offset="1" style="stop-color:#006DD9"/>
</linearGradient>
<path style="fill:url(#SVGID_5_);" d="M21,43.5c0,0.828-0.672,1.5-1.5,1.5S18,44.328,18,43.5c0-0.681,1.015-2.353,1.375-2.925
	c0.058-0.093,0.191-0.093,0.25,0C19.985,41.147,21,42.819,21,43.5z"/>
</svg>