<svg xmlns="http://www.w3.org/2000/svg"  viewBox="0 0 48 48" width="48px" height="48px"><radialGradient id="zgwOiADJ_4~AjdhIzsFHha" cx="16" cy="17" r="13" gradientUnits="userSpaceOnUse"><stop offset="0" stop-color="#ffe16e"/><stop offset=".583" stop-color="#fcbf22"/><stop offset=".654" stop-color="#fea20f"/><stop offset=".718" stop-color="#ff8c00"/><stop offset=".797" stop-color="#ffa300"/><stop offset=".928" stop-color="#ffc400"/><stop offset="1" stop-color="#ffd000"/></radialGradient><path fill="url(#zgwOiADJ_4~AjdhIzsFHha)" d="M16,4l0.561,1.161c0.637,1.319,2.359,1.661,3.452,0.687l0.962-0.858l0.074,1.287	c0.084,1.462,1.544,2.437,2.927,1.955l1.217-0.424l-0.424,1.217c-0.482,1.383,0.493,2.843,1.955,2.927l1.287,0.074l-0.858,0.962	c-0.974,1.093-0.632,2.815,0.687,3.452L29,17l-1.161,0.561c-1.319,0.637-1.661,2.359-0.687,3.452l0.858,0.962l-1.287,0.074	c-1.462,0.084-2.437,1.544-1.955,2.927l0.424,1.217l-1.217-0.424c-1.383-0.482-2.843,0.493-2.927,1.955l-0.074,1.287l-0.962-0.858	c-1.093-0.974-2.815-0.632-3.452,0.687L16,30l-0.561-1.161c-0.637-1.319-2.359-1.661-3.452-0.687l-0.962,0.858l-0.074-1.287	c-0.084-1.462-1.544-2.437-2.927-1.955l-1.217,0.424l0.424-1.217c0.482-1.383-0.493-2.843-1.955-2.927L3.99,21.975l0.858-0.962	c0.974-1.093,0.632-2.815-0.687-3.452L3,17l1.161-0.561c1.319-0.637,1.661-2.359,0.687-3.452L3.99,12.025l1.287-0.074	c1.462-0.084,2.437-1.544,1.955-2.927L6.808,7.808l1.217,0.424c1.383,0.482,2.843-0.493,2.927-1.955l0.074-1.287l0.962,0.858	c1.093,0.974,2.815,0.632,3.452-0.687L16,4z"/><circle cx="30" cy="20" r="11" fill="#7da6d9"/><circle cx="36" cy="26" r="8" fill="#7da6d9"/><circle cx="30" cy="27" r="9" fill="#7da6d9"/><circle cx="19" cy="27" r="8" fill="#7da6d9"/><circle cx="24" cy="26" r="9" fill="#7da6d9"/><circle cx="13" cy="26" r="7" fill="#7da6d9"/><circle cx="18" cy="21" r="7" fill="#7da6d9"/><radialGradient id="zgwOiADJ_4~AjdhIzsFHhb" cx="21.037" cy="36.534" r="2.685" fx="19.804" fy="36.538" gradientTransform="matrix(0 -1 .8265 0 -9.157 57.57)" gradientUnits="userSpaceOnUse"><stop offset="0" stop-color="#b3f1ff"/><stop offset=".166" stop-color="#9ee4fc"/><stop offset=".509" stop-color="#68c2f3"/><stop offset=".996" stop-color="#118ce6"/><stop offset="1" stop-color="#108ce6"/></radialGradient><path fill="url(#zgwOiADJ_4~AjdhIzsFHhb)" d="M23,37c0,1.105-0.895,2-2,2s-2-0.895-2-2c0-1.6,1.6-4,2-4S23,35.4,23,37z"/><radialGradient id="zgwOiADJ_4~AjdhIzsFHhc" cx="30" cy="20" r="11" gradientUnits="userSpaceOnUse"><stop offset="0" stop-color="#e0ecff"/><stop offset="1" stop-color="#e0ecff" stop-opacity="0"/></radialGradient><circle cx="30" cy="20" r="11" fill="url(#zgwOiADJ_4~AjdhIzsFHhc)"/><radialGradient id="zgwOiADJ_4~AjdhIzsFHhd" cx="36" cy="26" r="8" gradientUnits="userSpaceOnUse"><stop offset="0" stop-color="#e0ecff"/><stop offset="1" stop-color="#e0ecff" stop-opacity="0"/></radialGradient><circle cx="36" cy="26" r="8" fill="url(#zgwOiADJ_4~AjdhIzsFHhd)"/><radialGradient id="zgwOiADJ_4~AjdhIzsFHhe" cx="30" cy="27" r="9" gradientUnits="userSpaceOnUse"><stop offset="0" stop-color="#e0ecff"/><stop offset="1" stop-color="#e0ecff" stop-opacity="0"/></radialGradient><circle cx="30" cy="27" r="9" fill="url(#zgwOiADJ_4~AjdhIzsFHhe)"/><radialGradient id="zgwOiADJ_4~AjdhIzsFHhf" cx="19" cy="27" r="8" gradientUnits="userSpaceOnUse"><stop offset="0" stop-color="#e0ecff"/><stop offset="1" stop-color="#e0ecff" stop-opacity="0"/></radialGradient><circle cx="19" cy="27" r="8" fill="url(#zgwOiADJ_4~AjdhIzsFHhf)"/><radialGradient id="zgwOiADJ_4~AjdhIzsFHhg" cx="24" cy="26" r="9" gradientUnits="userSpaceOnUse"><stop offset="0" stop-color="#e0ecff"/><stop offset="1" stop-color="#e0ecff" stop-opacity="0"/></radialGradient><circle cx="24" cy="26" r="9" fill="url(#zgwOiADJ_4~AjdhIzsFHhg)"/><radialGradient id="zgwOiADJ_4~AjdhIzsFHhh" cx="13" cy="26" r="7" gradientUnits="userSpaceOnUse"><stop offset="0" stop-color="#e0ecff"/><stop offset="1" stop-color="#e0ecff" stop-opacity="0"/></radialGradient><circle cx="13" cy="26" r="7" fill="url(#zgwOiADJ_4~AjdhIzsFHhh)"/><radialGradient id="zgwOiADJ_4~AjdhIzsFHhi" cx="18" cy="21" r="7" gradientUnits="userSpaceOnUse"><stop offset="0" stop-color="#e0ecff"/><stop offset="1" stop-color="#e0ecff" stop-opacity="0"/></radialGradient><circle cx="18" cy="21" r="7" fill="url(#zgwOiADJ_4~AjdhIzsFHhi)"/><radialGradient id="zgwOiADJ_4~AjdhIzsFHhj" cx="30.546" cy="41.917" r="3.356" fx="29.005" fy="41.922" gradientTransform="matrix(0 -1 .8265 0 -4.097 72.464)" gradientUnits="userSpaceOnUse"><stop offset="0" stop-color="#b3f1ff"/><stop offset=".166" stop-color="#9ee4fc"/><stop offset=".509" stop-color="#68c2f3"/><stop offset=".996" stop-color="#118ce6"/><stop offset="1" stop-color="#108ce6"/></radialGradient><path fill="url(#zgwOiADJ_4~AjdhIzsFHhj)" d="M33,42.5c0,1.381-1.119,2.5-2.5,2.5S28,43.881,28,42.5c0-2,2-5,2.5-5S33,40.5,33,42.5z"/><radialGradient id="zgwOiADJ_4~AjdhIzsFHhk" cx="13.037" cy="41.034" r="2.685" fx="11.804" fy="41.038" gradientTransform="matrix(0 -1 .8265 0 -20.876 54.07)" gradientUnits="userSpaceOnUse"><stop offset="0" stop-color="#b3f1ff"/><stop offset=".166" stop-color="#9ee4fc"/><stop offset=".509" stop-color="#68c2f3"/><stop offset=".996" stop-color="#118ce6"/><stop offset="1" stop-color="#108ce6"/></radialGradient><path fill="url(#zgwOiADJ_4~AjdhIzsFHhk)" d="M15,41.5c0,1.105-0.895,2-2,2s-2-0.895-2-2c0-1.6,1.6-4,2-4S15,39.9,15,41.5z"/><radialGradient id="zgwOiADJ_4~AjdhIzsFHhl" cx="39.037" cy="38.534" r="2.685" fx="37.804" fy="38.538" gradientTransform="matrix(0 -1 .8265 0 7.19 77.57)" gradientUnits="userSpaceOnUse"><stop offset="0" stop-color="#b3f1ff"/><stop offset=".166" stop-color="#9ee4fc"/><stop offset=".509" stop-color="#68c2f3"/><stop offset=".996" stop-color="#118ce6"/><stop offset="1" stop-color="#108ce6"/></radialGradient><path fill="url(#zgwOiADJ_4~AjdhIzsFHhl)" d="M41,39c0,1.105-0.895,2-2,2s-2-0.895-2-2c0-1.6,1.6-4,2-4S41,37.4,41,39z"/></svg>