<svg xmlns="http://www.w3.org/2000/svg"  viewBox="0 0 100 100" width="100px" height="100px" baseProfile="basic"><path fill="#de333b" d="M48.875,12.75c-5.372,3.541-0.563,16.594-8.49,17.88c-0.61-1.989-1.489-3.895-2.606-5.651	c-0.288-0.453-0.612-0.914-1.09-1.16c-0.872-0.449-1.988-0.007-2.618,0.744c-0.631,0.75-0.893,1.734-1.149,2.68	c-1.364,5.054-3.012,10.031-4.932,14.901c-2.13,5.403-4.63,10.815-4.976,16.612c-0.488,8.162,3.586,16.273,9.926,21.437	c6.34,5.164,14.714,7.506,22.887,7.268C77.535,86.828,90.066,69.73,86,49.594C80.489,22.301,59.004,6.073,48.875,12.75z"/><path fill="#f1a919" d="M68.753,49.717c-2.507-7.029-6.775-13.018-13.23-16.891c-2.469-1.482-5.252,0.609-5.224,3.185	c-0.667,0.264-1.284,0.72-1.755,1.38c-5.119,7.187-13.951,15.926-13.541,25.442c0.302,7.02,5.894,16.047,12.613,18.413	c1.142,0.402,2.102,0.199,2.824-0.327c2.447,0.897,5.076,0.402,7.313-0.963c3.973,2.501,10.338-4.378,11.8-7.625	C72.642,65.475,71.199,56.574,68.753,49.717z M44.987,69.878c0.079-0.036,0.158-0.063,0.237-0.105	c0.148-0.078,0.285-0.162,0.43-0.242c-0.092,0.334-0.186,0.669-0.282,1.006C45.239,70.318,45.112,70.098,44.987,69.878z"/><path fill="#f2cc3a" d="M65.247,70.258c-0.813-6.972-2.961-13.304-6.87-19.165c-1.568-2.351-5.7-2.276-6.397,0.836	c-0.176,0.785-0.507,1.496-0.863,2.196c-0.992,0.131-1.967,0.668-2.656,1.609c-4.052,5.534-7.595,18.269,0.583,22.085	c1.116,0.521,2.188,0.429,3.08,0.001c2.55,2.939,7.333,1.739,9.94-2.429c0.336-0.537,0.644-1.186,0.916-1.896	C64.367,73.192,65.465,72.125,65.247,70.258z"/><path d="M32.778,24.979c0,0-0.057-0.092-0.189-0.307c-0.146-0.201-0.348-0.577-0.873-0.889c-0.401-0.242-1.085-0.326-1.78-0.017	c-0.71,0.28-1.357,1.004-1.737,1.933c-0.391,0.935-0.648,1.998-1.032,3.152c-0.368,1.159-0.784,2.424-1.257,3.787	c-0.945,2.724-2.114,5.837-3.56,9.252c-1.429,3.42-3.246,7.155-4.473,11.578c-0.595,2.208-1.029,4.602-1.007,7.122	c0.016,2.51,0.424,5.101,1.238,7.642c1.657,5.061,4.888,9.965,9.557,13.623c4.635,3.665,10.505,6.059,16.744,6.917	c1.562,0.205,3.145,0.339,4.744,0.37c1.601,0.048,3.202-0.116,4.817-0.232c0.403-0.038,0.809-0.044,1.211-0.11l1.206-0.213	c0.805-0.144,1.613-0.289,2.423-0.434c0.798-0.207,1.59-0.453,2.389-0.681l1.198-0.351c0.399-0.119,0.777-0.307,1.167-0.458	c3.496-1.255,6.644-3.299,9.387-5.656c0.657-0.627,1.375-1.188,1.968-1.867c0.59-0.681,1.179-1.36,1.764-2.037	c0.561-0.695,1.023-1.461,1.533-2.186c0.239-0.372,0.517-0.721,0.722-1.111l0.612-1.169c0.885-1.524,1.45-3.17,2.065-4.774	c0.261-0.816,0.446-1.651,0.668-2.469c0.103-0.411,0.22-0.819,0.309-1.23l0.185-1.246c0.626-3.305,0.464-6.595,0.223-9.747	c-0.847-6.299-2.711-11.906-5.009-16.956c-2.297-5.035-5.14-9.381-8.156-12.973c-3.015-3.599-6.259-6.409-9.388-8.435	c-3.143-2.008-6.201-3.196-8.804-3.58c-1.298-0.219-2.476-0.173-3.477-0.089c-1,0.144-1.823,0.37-2.46,0.626	c-0.312,0.14-0.587,0.264-0.824,0.371c-0.227,0.126-0.408,0.248-0.558,0.337c-0.296,0.183-0.448,0.277-0.448,0.277	s0.159-0.083,0.467-0.244c0.155-0.078,0.343-0.186,0.575-0.294c0.241-0.089,0.52-0.192,0.837-0.309	c0.642-0.208,1.461-0.373,2.438-0.45c0.979-0.018,2.114,0.01,3.354,0.299c2.486,0.525,5.364,1.844,8.293,3.948	c2.916,2.123,5.913,4.997,8.666,8.611c2.755,3.607,5.318,7.913,7.35,12.84c1.021,2.459,1.923,5.065,2.666,7.799	c0.347,1.374,0.696,2.767,0.97,4.197c0.297,1.425,0.418,2.863,0.646,4.318c0.138,2.922,0.226,5.947-0.412,8.931l-0.186,1.128	c-0.089,0.371-0.204,0.736-0.304,1.105c-0.217,0.734-0.393,1.485-0.64,2.216c-0.585,1.427-1.104,2.9-1.919,4.244l-0.557,1.037	c-0.185,0.347-0.441,0.651-0.658,0.98c-0.464,0.637-0.876,1.318-1.383,1.929c-0.526,0.595-1.055,1.193-1.585,1.792	c-0.529,0.601-1.179,1.087-1.763,1.642c-2.456,2.071-5.248,3.892-8.4,5.015c-0.351,0.136-0.687,0.309-1.048,0.415l-1.084,0.315	c-0.722,0.206-1.437,0.432-2.159,0.625c-0.738,0.134-1.474,0.268-2.207,0.402l-1.098,0.203c-0.366,0.063-0.742,0.068-1.112,0.106	c-1.484,0.112-2.957,0.284-4.424,0.252c-1.467-0.015-2.921-0.121-4.355-0.29c-5.733-0.715-11.107-2.801-15.368-6.007	c-4.271-3.178-7.34-7.54-8.999-12.08c-0.815-2.279-1.269-4.609-1.372-6.882c-0.11-2.269,0.194-4.491,0.667-6.602	c0.976-4.231,2.592-8.029,3.86-11.545c1.284-3.518,2.287-6.715,3.076-9.506c0.394-1.396,0.736-2.691,1.033-3.875	c0.312-1.179,0.509-2.279,0.819-3.172c0.307-0.9,0.835-1.575,1.469-1.881c0.62-0.327,1.249-0.298,1.647-0.098	c0.511,0.269,0.739,0.632,0.895,0.823C32.716,24.891,32.778,24.979,32.778,24.979z"/></svg>