<svg xmlns="http://www.w3.org/2000/svg"  viewBox="0 0 48 48" width="48px" height="48px"><linearGradient id="SVGID_1_" x1="39.62" x2="13.698" y1="13.698" y2="39.62" gradientUnits="userSpaceOnUse"><stop offset="0" stop-color="#60e8fe"/><stop offset=".033" stop-color="#6ae9fe"/><stop offset=".197" stop-color="#97f0fe"/><stop offset=".362" stop-color="#bdf5ff"/><stop offset=".525" stop-color="#dafaff"/><stop offset=".687" stop-color="#eefdff"/><stop offset=".846" stop-color="#fbfeff"/><stop offset="1" stop-color="#fff"/></linearGradient><path fill="url(#SVGID_1_)" d="M41.47,30.77c0.75-2.01,1.19-4.17,1.19-6.44C42.66,14.21,34.45,6,24.33,6C14.21,6,6,14.21,6,24.33	s8.21,18.33,18.33,18.33c2.26,0,4.42-0.43,6.42-1.18c1.26,1.82,3.37,3.02,5.75,3.02c3.87,0,7-3.13,7-7	C43.5,35.35,42.61,32.96,41.47,30.77z"/><path fill="none" stroke="#10cfe3" stroke-linecap="round" stroke-linejoin="round" stroke-miterlimit="10" stroke-width="3" d="M32.65,28.8c1.14-1.86,2.33-3.42,3.08-4.36c0.4-0.5,1.15-0.5,1.55,0c1.82,2.28,6.22,8.27,6.22,13.06	c0,3.87-3.13,7-7,7s-7-3.13-7-7c0-1.1,0.23-2.27,0.61-3.43"/><path fill="none" stroke="#10cfe3" stroke-linecap="round" stroke-linejoin="round" stroke-miterlimit="10" stroke-width="3" d="M24.5,42.49c-0.17,0.01-0.33,0.01-0.5,0.01C13.78,42.5,5.5,34.22,5.5,24S13.78,5.5,24,5.5	c9.37,0,17.11,6.97,18.33,16"/><line x1="24" x2="32.5" y1="24" y2="15.5" fill="none" stroke="#10cfe3" stroke-linecap="round" stroke-linejoin="round" stroke-miterlimit="10" stroke-width="3"/><path fill="none" stroke="#10cfe3" stroke-linecap="round" stroke-linejoin="round" stroke-miterlimit="10" stroke-width="3" d="M27.5,12c-1.11-0.32-2.28-0.5-3.5-0.5c-6.9,0-12.5,5.6-12.5,12.5c0,3.81,1.71,7.21,4.39,9.5"/><path fill="none" stroke="#10cfe3" stroke-linecap="round" stroke-linejoin="round" stroke-miterlimit="10" stroke-width="3" d="M33.5,36.5c2,0,3.5-2,5.5-2s4,2,4,2"/></svg>