<svg xmlns="http://www.w3.org/2000/svg"  viewBox="0 0 64 64" width="64px" height="64px"><g id="Layer_2"><path fill="#efc36a" d="M35,6.167h-6v0.708C17.628,9.581,9.168,19.799,9.168,32c0,12.201,8.46,22.419,19.832,25.126v0.005l0,0v0.703 h6c14.268,0,25.834-11.566,25.834-25.834C60.834,17.733,49.268,6.167,35,6.167z"/><path fill="#63312d" d="M35,58.333h-6c-0.276,0-0.5-0.224-0.5-0.5v-0.316C16.803,54.551,8.668,44.114,8.668,32 c0-12.114,8.135-22.551,19.832-25.517V6.167c0-0.276,0.224-0.5,0.5-0.5h6c14.521,0,26.334,11.813,26.334,26.333 C61.334,46.52,49.521,58.333,35,58.333z M29.5,57.333H35c13.969,0,25.334-11.365,25.334-25.334 C60.334,18.031,48.969,6.667,35,6.667h-5.5v0.208c0,0.231-0.159,0.433-0.384,0.486C17.665,10.086,9.668,20.218,9.668,32 c0,11.782,7.997,21.915,19.448,24.64c0.225,0.054,0.384,0.255,0.384,0.486V57.333z"/><path fill="#f9dd9d" d="M3.168,32c0,14.268,11.564,25.834,25.832,25.834S54.834,46.267,54.834,32 C54.834,17.733,43.268,6.167,29,6.167S3.168,17.733,3.168,32z"/><path fill="#63312d" d="M29,58.333C14.48,58.333,2.668,46.52,2.668,32C2.668,17.479,14.48,5.667,29,5.667 c14.521,0,26.334,11.813,26.334,26.333C55.334,46.52,43.521,58.333,29,58.333z M29,6.667C15.032,6.667,3.668,18.031,3.668,32 c0,13.969,11.364,25.334,25.332,25.334c13.969,0,25.334-11.365,25.334-25.334C54.334,18.031,42.969,6.667,29,6.667z"/><path fill="#f8f3f3" d="M6.084,32c0,12.657,10.26,22.918,22.916,22.918c12.658,0,22.918-10.261,22.918-22.918 c0-12.656-10.26-22.917-22.918-22.917C16.344,9.083,6.084,19.343,6.084,32z"/><path fill="#63312d" d="M29,55.417C16.088,55.417,5.584,44.912,5.584,32C5.584,19.087,16.088,8.583,29,8.583 c12.913,0,23.418,10.505,23.418,23.417C52.418,44.912,41.913,55.417,29,55.417z M29,9.583C16.64,9.583,6.584,19.639,6.584,32 C6.584,44.361,16.64,54.417,29,54.417c12.361,0,22.418-10.057,22.418-22.418C51.418,19.639,41.361,9.583,29,9.583z"/><path fill="#f9a287" d="M39.344,15.003l-3.332,5.476C39.897,22.849,42.5,27.115,42.5,32c0,2.577-0.734,4.976-1.986,7.024l5.473,3.338 c1.848-3.021,2.932-6.561,2.932-10.362C48.918,24.793,45.077,18.5,39.344,15.003z"/><path fill="#63312d" d="M45.986,42.862c-0.089,0-0.179-0.023-0.261-0.073l-5.473-3.338c-0.113-0.069-0.194-0.18-0.226-0.309 s-0.01-0.265,0.06-0.378C41.339,36.715,42,34.376,42,32c0-4.56-2.336-8.707-6.249-11.094c-0.235-0.144-0.31-0.451-0.166-0.687 l3.332-5.476c0.068-0.113,0.18-0.195,0.309-0.226c0.13-0.032,0.266-0.01,0.379,0.059c6.145,3.748,9.813,10.261,9.813,17.423 c0,3.735-1.039,7.408-3.005,10.623C46.318,42.777,46.154,42.862,45.986,42.862z M41.193,38.853l4.621,2.819 c1.705-2.953,2.604-6.286,2.604-9.672c0-6.645-3.321-12.702-8.91-16.304l-2.813,4.624C40.652,22.925,43,27.254,43,32 C43,34.395,42.377,36.753,41.193,38.853z"/><path fill="#84dbff" d="M29,12.083c-3.736,0-7.221,1.048-10.209,2.838C12.983,18.401,9.084,24.737,9.084,32 c0,3.858,1.114,7.448,3.014,10.499l5.445-3.382C16.256,37.048,15.5,34.615,15.5,32c0-4.923,2.644-9.217,6.58-11.576 C24.105,19.21,26.467,18.5,29,18.5c2.572,0,4.967,0.732,7.012,1.979l3.332-5.476C36.326,13.162,32.794,12.083,29,12.083z"/><path fill="#caf4ff" d="M11.084,32c0-7.263,3.899-13.599,9.707-17.079c2.717-1.628,5.848-2.633,9.202-2.803 c-0.329-0.017-0.659-0.035-0.993-0.035c-3.736,0-7.221,1.048-10.209,2.838C12.983,18.401,9.084,24.737,9.084,32 c0,3.858,1.114,7.448,3.014,10.499l1.472-0.915C11.998,38.739,11.084,35.48,11.084,32z"/><path fill="#63312d" d="M12.098,42.998c-0.167,0-0.33-0.083-0.425-0.236C9.652,39.516,8.584,35.794,8.584,32 c0-7.229,3.72-13.774,9.95-17.507c3.178-1.904,6.797-2.91,10.466-2.91c3.727,0,7.394,1.035,10.604,2.994 c0.235,0.144,0.31,0.451,0.166,0.687l-3.332,5.476c-0.068,0.113-0.18,0.195-0.309,0.226c-0.13,0.03-0.267,0.01-0.379-0.059 c-4.057-2.475-9.336-2.496-13.414-0.054C18.369,23.23,16,27.398,16,32c0,2.415,0.681,4.784,1.968,6.852 c0.069,0.113,0.092,0.249,0.063,0.378c-0.03,0.129-0.11,0.241-0.224,0.311l-5.445,3.382 C12.279,42.974,12.188,42.998,12.098,42.998z M29,12.583c-3.488,0-6.93,0.957-9.952,2.767C13.122,18.901,9.584,25.125,9.584,32 c0,3.443,0.925,6.822,2.68,9.807l4.598-2.856C15.643,36.828,15,34.436,15,32c0-4.957,2.551-9.444,6.823-12.005 c4.249-2.544,9.717-2.615,14.017-0.196l2.813-4.624C35.705,13.478,32.378,12.583,29,12.583z"/><path fill="#f9dd9d" d="M25.5,47.402l3.5-26.25l3.5,26.25c0.258,1.933-1.1,3.709-3.033,3.967c-1.933,0.258-3.709-1.101-3.967-3.034 C25.459,48.024,25.463,47.699,25.5,47.402z"/><path fill="#ffeecf" d="M27.5,48.335c-0.041-0.311-0.037-0.636,0-0.933l2.5-18.75l-1-7.5l-3.5,26.25 c-0.037,0.297-0.041,0.622,0,0.933c0.258,1.933,2.034,3.292,3.967,3.034c0.182-0.024,0.352-0.074,0.521-0.124 C28.701,50.858,27.689,49.754,27.5,48.335z"/><path fill="#63312d" d="M28.992,51.9c-0.88,0-1.73-0.287-2.44-0.83c-0.855-0.654-1.405-1.603-1.548-2.67 c-0.044-0.339-0.044-0.706,0-1.061c0-0.001,0-0.002,0-0.004l3.5-26.25c0.033-0.249,0.245-0.434,0.496-0.434 s0.463,0.186,0.496,0.434l3.5,26.25c0.142,1.067-0.14,2.126-0.794,2.981c-0.653,0.855-1.602,1.405-2.669,1.547 C29.352,51.888,29.171,51.9,28.992,51.9z M25.996,47.467c-0.034,0.271-0.034,0.548,0,0.803c0.106,0.802,0.52,1.515,1.163,2.007 c0.643,0.492,1.439,0.703,2.241,0.597c0.803-0.107,1.516-0.52,2.008-1.163c0.491-0.643,0.703-1.439,0.596-2.242L29,24.935 L25.996,47.467z"/><path fill="#f8f3f3" d="M30.354,48.152c0,0.748-0.606,1.354-1.354,1.354s-1.354-0.606-1.354-1.354c0-0.748,0.606-1.354,1.354-1.354 S30.354,47.404,30.354,48.152z"/><path fill="#63312d" d="M29,50.006c-1.022,0-1.854-0.832-1.854-1.854s0.831-1.854,1.854-1.854s1.854,0.832,1.854,1.854 S30.022,50.006,29,50.006z M29,47.298c-0.471,0-0.854,0.383-0.854,0.854c0,0.471,0.383,0.854,0.854,0.854s0.854-0.383,0.854-0.854 C29.854,47.681,29.471,47.298,29,47.298z"/><rect width="2.265" height="1" x="32.665" y="13.386" fill="#63312d" transform="rotate(-75.179 33.798 13.887)"/><rect width="1" height="2.267" x="10.359" y="26.095" fill="#63312d" transform="rotate(-75.162 10.859 27.227)"/><rect width="1" height="2.266" x="46.641" y="35.691" fill="#63312d" transform="rotate(-75.179 47.143 36.825)"/><rect width="2.265" height="1" x="41.041" y="18.16" fill="#63312d" transform="rotate(-45.474 42.176 18.661)"/><rect width="1" height="2.266" x="15.133" y="17.723" fill="#63312d" transform="rotate(-45.436 15.633 18.855)"/><rect width="2.263" height="1" x="9.772" y="36.491" fill="#63312d" transform="rotate(-15.408 10.902 36.988)"/><rect width="2.264" height="1" x="45.966" y="26.562" fill="#63312d" transform="rotate(-15.284 47.1 27.063)"/><rect width="1" height="2.262" x="23.536" y="12.799" fill="#63312d" transform="rotate(-15.377 24.032 13.93)"/></g></svg>