<svg xmlns="http://www.w3.org/2000/svg"  viewBox="0 0 64 64" width="64px" height="64px"><ellipse cx="32" cy="61" opacity=".3" rx="22" ry="3"/><path fill="#37d0ee" d="M30,16c0,1.84,0.5,3.56,1.36,5.03c0.25,0.44,0.54,0.85,0.85,1.24c1.53,1.89,3.73,3.22,6.24,3.61 C38.95,25.96,39.47,26,40,26c3.03,0,5.74-1.35,7.58-3.48l0.01-0.01c0.34-0.39,0.64-0.81,0.91-1.26c0.61-0.97,1.05-2.06,1.3-3.22 C49.93,17.38,50,16.7,50,16c0-5.52-4.48-10-10-10c-1.75,0-3.4,0.45-4.84,1.25c-1.48,0.82-2.73,1.99-3.63,3.43 c-0.32,0.51-0.6,1.06-0.82,1.64C30.25,13.46,30,14.7,30,16z"/><path fill="#37d0ee" d="M14,18.5c0,0.51,0.04,1.01,0.12,1.5c0.03,0.2,0.07,0.4,0.11,0.6c0.04,0.14,0.07,0.29,0.12,0.43 c0.05,0.22,0.12,0.44,0.2,0.65c0.37,1.06,0.93,2.03,1.63,2.88c0.17,0.2,0.34,0.39,0.52,0.57C18.43,26.9,20.83,28,23.5,28 c0.1,0,0.2,0,0.29-0.01c0.1,0,0.19-0.01,0.29-0.01c3.66-0.22,6.76-2.52,8.13-5.71c0.09-0.2,0.17-0.39,0.24-0.59 c0.08-0.21,0.15-0.43,0.21-0.65c0.22-0.8,0.34-1.65,0.34-2.53c0-2.36-0.86-4.52-2.29-6.18C28.97,10.29,26.39,9,23.5,9 c-2.33,0-4.47,0.85-6.13,2.24c-1.28,1.09-2.27,2.51-2.83,4.12C14.19,16.34,14,17.4,14,18.5z"/><path fill="#37d0ee" d="M38,29c0,5.91,4.65,10.73,10.5,10.99C48.67,40,48.83,40,49,40c2.52,0,4.84-0.85,6.69-2.27 c1.33-1.02,2.43-2.35,3.18-3.86C59.59,32.4,60,30.75,60,29c0-5.81-4.5-10.56-10.2-10.97C49.53,18.01,49.27,18,49,18 c-1.46,0-2.85,0.29-4.13,0.81h-0.01c-1.29,0.52-2.45,1.27-3.44,2.22c-1.38,1.31-2.42,2.98-2.97,4.85C38.16,26.87,38,27.91,38,29z"/><path fill="#37d0ee" d="M4,30c0,4.07,2.43,7.57,5.91,9.12c1.24,0.56,2.61,0.87,4.05,0.88H14c3.7,0,6.93-2.01,8.66-5 c0.85-1.47,1.34-3.18,1.34-5c0-0.69-0.07-1.36-0.21-2.01c-0.06-0.34-0.15-0.67-0.25-0.99c-0.76-2.42-2.42-4.44-4.58-5.68 c-0.04-0.02-0.08-0.05-0.12-0.07c-0.14-0.08-0.28-0.15-0.43-0.22c-1.27-0.63-2.7-1-4.21-1.03H14C8.48,20,4,24.48,4,30z"/><rect width="34.5" height="18.97" x="14" y="21.03" fill="#37d0ee"/><path fill="#008aa9" d="M10.524,37.037c0.674-1.168,3.197-2.48,5.025-3.313c0.997-0.454,2.154,0.215,2.26,1.305	c0.193,2,0.318,4.84-0.356,6.008c-1.091,1.889-3.526,2.526-5.439,1.421S9.433,38.926,10.524,37.037z"/><path fill="#008aa9" d="M22.486,47.037c0.674-1.168,3.197-2.48,5.025-3.313c0.997-0.454,2.154,0.215,2.26,1.305	c0.193,2,0.318,4.84-0.356,6.008c-1.091,1.889-3.526,2.526-5.439,1.421S21.395,48.926,22.486,47.037z"/><path fill="#008aa9" d="M11.356,48.512c0.507-0.879,2.406-1.867,3.781-2.493c0.75-0.341,1.621,0.162,1.7,0.982	c0.146,1.505,0.239,3.642-0.268,4.521c-0.821,1.422-2.653,1.901-4.093,1.069S10.536,49.934,11.356,48.512z"/><path fill="#008aa9" d="M23.356,36.512c0.507-0.879,2.406-1.867,3.781-2.493c0.75-0.341,1.621,0.162,1.7,0.982	c0.146,1.505,0.239,3.642-0.268,4.521c-0.821,1.422-2.653,1.901-4.093,1.069C23.037,39.761,22.536,37.934,23.356,36.512z"/><path fill="#008aa9" d="M34.562,37.037c0.674-1.168,3.197-2.48,5.025-3.313c0.997-0.454,2.154,0.215,2.26,1.305	c0.193,2,0.318,4.84-0.356,6.008c-1.091,1.889-3.526,2.526-5.439,1.421S33.471,38.926,34.562,37.037z"/><path fill="#008aa9" d="M46.524,47.037c0.674-1.168,3.197-2.48,5.025-3.313c0.997-0.454,2.154,0.215,2.26,1.305	c0.193,2,0.318,4.84-0.356,6.008c-1.091,1.889-3.526,2.526-5.439,1.421S45.433,48.926,46.524,47.037z"/><path fill="#008aa9" d="M35.394,48.512c0.507-0.879,2.406-1.867,3.781-2.493c0.75-0.341,1.621,0.162,1.7,0.982	c0.146,1.505,0.239,3.642-0.268,4.521c-0.821,1.422-2.653,1.901-4.093,1.069S34.574,49.934,35.394,48.512z"/><path d="M60,29c0,1.75-0.41,3.4-1.13,4.87c-0.75,1.51-1.85,2.84-3.18,3.86C53.84,39.15,51.52,40,49,40	c-0.17,0-0.33,0-0.5-0.01V40h-0.44c-0.36-2.26,0.9-4.54,3.12-5.41c0.52-0.2,1.02-0.48,1.47-0.83c0.73-0.56,1.33-1.29,1.74-2.11	C54.79,30.83,55,29.93,55,29c0-3.13-2.44-5.76-5.56-5.98c-1.43-0.11-2.75-0.82-3.62-1.96s-1.2-2.6-0.92-4.01	C44.97,16.71,45,16.36,45,16c0-0.51-0.08-1.01-0.22-1.49c-0.7-2.21,0.23-4.56,2.12-5.74C48.81,10.59,50,13.16,50,16	c0,0.7-0.07,1.38-0.2,2.03C55.5,18.44,60,23.19,60,29z" opacity=".15"/><path fill="#fff" d="M28.32,10.32C27.74,12.44,25.8,14,23.5,14c-1.35,0-2.33,0.58-2.92,1.07	c-0.59,0.51-1.06,1.18-1.32,1.93C19.08,17.5,19,17.99,19,18.5c0,0.24,0.02,0.47,0.05,0.69c0.24,1.45-0.17,2.93-1.12,4.05	S15.59,25,14.12,25H14c-2.76,0-5,2.24-5,5c0,2.33-1.59,4.29-3.75,4.84C4.45,33.41,4,31.76,4,30c0-5.52,4.48-10,10-10h0.12	C14.04,19.51,14,19.01,14,18.5c0-1.1,0.19-2.16,0.54-3.14c0.56-1.61,1.55-3.03,2.83-4.12C19.03,9.85,21.17,9,23.5,9	C25.26,9,26.91,9.48,28.32,10.32z" opacity=".3"/><path fill="#fff" d="M18.499,17c-0.226,0-0.454-0.051-0.67-0.159c-0.741-0.371-1.041-1.271-0.671-2.013	C18.402,12.342,21.354,11,23.5,11c0.828,0,1.5,0.671,1.5,1.5S24.328,14,23.5,14c-1.052,0-2.959,0.773-3.658,2.171	C19.579,16.696,19.049,17,18.499,17z"/><path fill="#008aa9" d="M47.394,36.512c0.507-0.879,2.406-1.867,3.781-2.493c0.75-0.341,1.621,0.162,1.7,0.982	c0.146,1.505,0.239,3.642-0.268,4.521c-0.821,1.422-2.653,1.901-4.093,1.069S46.574,37.934,47.394,36.512z"/></svg>