<svg xmlns="http://www.w3.org/2000/svg" xmlns:xlink="http://www.w3.org/1999/xlink" viewBox="0,0,256,256" width="50px" height="50px" fill-rule="nonzero"><g fill="#08c3f3" fill-rule="nonzero" stroke="none" stroke-width="1" stroke-linecap="butt" stroke-linejoin="miter" stroke-miterlimit="10" stroke-dasharray="" stroke-dashoffset="0" font-family="none" font-weight="none" font-size="none" text-anchor="none" style="mix-blend-mode: normal"><g transform="scale(5.12,5.12)"><path d="M36,38h-24c-4.41016,0 -8,-3.58984 -8,-8c0,-4.41016 3.58984,-8 8,-8c0.00391,0 0.00781,0 0.01563,0c-0.01172,-0.16797 -0.01562,-0.33594 -0.01562,-0.5c0,-5.78906 4.71094,-10.5 10.5,-10.5c4.76172,0 8.81641,3.12891 10.08594,7.60156c1.09375,-0.39844 2.23438,-0.60156 3.41406,-0.60156c5.51563,0 10,4.48438 10,10c0,5.51563 -4.48437,10 -10,10z"></path></g></g></svg>