<svg xmlns="http://www.w3.org/2000/svg" xmlns:xlink="http://www.w3.org/1999/xlink" viewBox="0,0,256,256" width="50px" height="50px" fill-rule="nonzero"><g fill-opacity="0.90196" fill="#087df3" fill-rule="nonzero" stroke="none" stroke-width="1" stroke-linecap="butt" stroke-linejoin="miter" stroke-miterlimit="10" stroke-dasharray="" stroke-dashoffset="0" font-family="none" font-weight="none" font-size="none" text-anchor="none" style="mix-blend-mode: normal"><g transform="scale(5.12,5.12)"><path d="M22.5,5c-5.78906,0 -10.5,4.71094 -10.5,10.5c0,0.16406 -0.01172,0.33203 0,0.5c-4.41016,0 -8,3.58984 -8,8c0,4.41016 3.58984,8 8,8h6.625l-0.03125,0.125c-0.13281,0.34766 -0.05859,0.73828 0.1875,1.01953c0.24609,0.27734 0.625,0.39453 0.98828,0.30469c0.35938,-0.08594 0.64063,-0.37109 0.73047,-0.73047l0.25,-0.71875h3.9375c0,0.50391 0.375,0.92969 0.875,0.99219c0.5,0.06641 0.96875,-0.25391 1.09375,-0.74219l0.09375,-0.25h9.25c5.51563,0 10,-4.48437 10,-10c0,-5.51562 -4.48437,-10 -10,-10c-1.17969,0 -2.3125,0.19531 -3.40625,0.59375c-1.26562,-4.47266 -5.33203,-7.59375 -10.09375,-7.59375zM24.59375,34.59375l-0.8125,0.40625l-0.15625,0.3125l-0.5625,1.8125l0.15625,0.875l0.78125,0.40625l0.8125,-0.375l0.15625,-0.3125l0.5625,-1.8125l-0.125,-0.90625zM18.0625,36.03125c-0.04297,0.00781 -0.08594,0.01953 -0.125,0.03125c-0.36328,0.08203 -0.65234,0.35938 -0.75,0.71875l-0.4375,1.4375c-0.14844,0.35547 -0.08203,0.76172 0.17188,1.05078c0.25391,0.28906 0.64844,0.40625 1.01953,0.30078c0.37109,-0.10547 0.64844,-0.41016 0.71484,-0.78906l0.4375,-1.40625c0.12109,-0.32422 0.06641,-0.68359 -0.14453,-0.95703c-0.21094,-0.27344 -0.54297,-0.41797 -0.88672,-0.38672zM22.8125,40.03125c-0.04297,0.00781 -0.08594,0.01953 -0.125,0.03125c-0.36328,0.08203 -0.65234,0.35938 -0.75,0.71875l-0.28125,0.9375c-0.13281,0.34766 -0.05859,0.73828 0.1875,1.01953c0.24609,0.27734 0.625,0.39453 0.98828,0.30469c0.35938,-0.08594 0.64063,-0.37109 0.73047,-0.73047l0.3125,-0.96875c0.10938,-0.32422 0.04297,-0.68359 -0.17187,-0.94922c-0.21484,-0.26562 -0.55078,-0.40234 -0.89062,-0.36328z"></path></g></g></svg>