<svg xmlns="http://www.w3.org/2000/svg"  viewBox="0 0 60 59.998" width="49px" height="49px"><path fill="#c6e2f7" d="M52,34.474V7c0-3.314-2.686-6-6-6h0c-3.314,0-6,2.686-6,6v27.474 c-4.535,2.366-7.505,7.318-6.929,12.906c0.618,5.994,5.455,10.874,11.445,11.538C52.36,59.786,59,53.669,59,46 C59,40.986,56.157,36.643,52,34.474z"/><path fill="#dd352e" d="M48,38.262V9c0-1.105-0.896-2-2-2s-2,0.895-2,2v29.262c-3.449,0.889-6,4.011-6,7.738 c0,4.418,3.582,8,8,8s8-3.582,8-8C54,42.274,51.449,39.152,48,38.262z"/><path fill="#366db6" d="M22.668,32h-5.335C14.392,32,12,29.668,12,26.801V11.199C12,8.332,14.392,6,17.332,6h5.335 C25.608,6,28,8.332,28,11.199V15h-5v-4h-6v16h6v-4h5v3.801C28,29.668,25.608,32,22.668,32z"/><circle cx="4" cy="9" r="3" fill="#afb6bb"/><path fill="#4d007e" d="M45.966,59.998c-0.519,0-1.04-0.028-1.56-0.086c-6.476-0.717-11.661-5.944-12.329-12.429 c-0.574-5.562,2.13-10.833,6.923-13.6V7c0-3.86,3.14-7,7-7s7,3.14,7,7v26.883c4.333,2.503,7,7.091,7,12.117 c0,3.976-1.7,7.779-4.665,10.433C52.761,58.738,49.414,59.998,45.966,59.998z M46,2c-2.757,0-5,2.243-5,5v27.474 c0,0.373-0.207,0.714-0.538,0.887c-4.396,2.293-6.906,6.971-6.396,11.917c0.573,5.555,5.014,10.032,10.56,10.646 c3.472,0.386,6.8-0.674,9.376-2.98C56.542,52.667,58,49.408,58,46c0-4.483-2.476-8.56-6.462-10.639 C51.207,35.188,51,34.847,51,34.474V7C51,4.243,48.757,2,46,2z"/><path fill="#4d007e" d="M46,50c-2.206,0-4-1.794-4-4s1.794-4,4-4c0.552,0,1,0.448,1,1s-0.448,1-1,1c-1.103,0-2,0.897-2,2 s0.897,2,2,2s2-0.897,2-2c0-0.552,0.448-1,1-1s1,0.448,1,1C50,48.206,48.206,50,46,50z"/><path fill="#4d007e" d="M46,55c-4.962,0-9-4.038-9-9c0-3.838,2.431-7.22,6-8.478V9c0-1.654,1.346-3,3-3s3,1.346,3,3v28.522 c3.569,1.258,6,4.64,6,8.478C55,50.962,50.962,55,46,55z M46,8c-0.551,0-1,0.449-1,1v29.262c0,0.456-0.309,0.854-0.75,0.968 C41.159,40.027,39,42.811,39,46c0,3.86,3.14,7,7,7s7-3.14,7-7c0-3.189-2.159-5.973-5.25-6.77C47.309,39.117,47,38.718,47,38.262V9 C47,8.449,46.551,8,46,8z"/><path fill="#4d007e" d="M22.668,33h-5.335C13.841,33,11,30.219,11,26.801V11.199C11,7.781,13.841,5,17.332,5h5.335 C26.159,5,29,7.781,29,11.199V15c0,0.552-0.448,1-1,1h-5c-0.552,0-1-0.448-1-1v-3h-4v14h4v-3c0-0.552,0.448-1,1-1h5 c0.552,0,1,0.448,1,1v3.801C29,30.219,26.159,33,22.668,33z M17.332,7C14.943,7,13,8.883,13,11.199v15.603 C13,29.117,14.943,31,17.332,31h5.335C25.057,31,27,29.117,27,26.801V24h-3v3c0,0.552-0.448,1-1,1h-6c-0.552,0-1-0.448-1-1V11 c0-0.552,0.448-1,1-1h6c0.552,0,1,0.448,1,1v3h3v-2.801C27,8.883,25.057,7,22.668,7H17.332z"/><path fill="#4d007e" d="M4,13c-2.206,0-4-1.794-4-4s1.794-4,4-4s4,1.794,4,4S6.206,13,4,13z M4,7C2.897,7,2,7.897,2,9 s0.897,2,2,2s2-0.897,2-2S5.103,7,4,7z"/></svg>