<svg xmlns="http://www.w3.org/2000/svg"  viewBox="0 0 24 24" width="24px" height="24px"><path fill="#303C42" d="M6.7216797,17.0517578c-0.1708984-0.0854492-0.375-0.0654297-0.5253906,0.0512695l-1.5537109,1.1889648 C4.234375,18.5820312,4,19.0214844,4,19.5C4,20.3271484,4.6728516,21,5.5,21S7,20.3271484,7,19.5v-2 C7,17.3095703,6.8916016,17.1357422,6.7216797,17.0517578z"/><path fill="#00AAE7" d="M6,19.5C6,19.7758789,5.7753906,20,5.5,20S5,19.7758789,5,19.5 c0-0.2070312,0.140625-0.3369141,0.2255859-0.3955078c0.0058594-0.0039062,0.0107422-0.0083008,0.0166016-0.0126953L6,18.512207 V19.5z"/><path fill="#303C42" d="M12.2216797,20.0517578c-0.1708984-0.0849609-0.375-0.0654297-0.5253906,0.0512695l-1.5537109,1.1889648 C9.734375,21.581543,9.5,22.0209961,9.5,22.5c0,0.8271484,0.6728516,1.5,1.5,1.5s1.5-0.6728516,1.5-1.5v-2 C12.5,20.3095703,12.3916016,20.1357422,12.2216797,20.0517578z"/><path fill="#00AAE7" d="M11.5,22.5c0,0.2758789-0.2246094,0.5-0.5,0.5s-0.5-0.2241211-0.5-0.5 c0-0.2070312,0.140625-0.3359375,0.2246094-0.3945312c0.0058594-0.0043945,0.0117188-0.0087891,0.0175781-0.0131836L11.5,21.512207 V22.5z"/><path fill="#303C42" d="M17.7216797,17.0517578c-0.1708984-0.0854492-0.375-0.0654297-0.5253906,0.0512695l-1.5537109,1.1889648 C15.234375,18.5820312,15,19.0214844,15,19.5c0,0.8271484,0.6728516,1.5,1.5,1.5s1.5-0.6728516,1.5-1.5v-2 C18,17.3095703,17.8916016,17.1357422,17.7216797,17.0517578z"/><path fill="#00AAE7" d="M17,19.5c0,0.2758789-0.2246094,0.5-0.5,0.5S16,19.7758789,16,19.5 c0-0.2070312,0.140625-0.3369141,0.2255859-0.3955078c0.0058594-0.0039062,0.0107422-0.0083008,0.0166016-0.0126953L17,18.512207 V19.5z"/><path fill="#303C42" d="M18.5,5c-0.0357056,0-0.0709229,0.0079956-0.1065674,0.008728C17.190979,2.0044556,14.2753906,0,11,0 C6.8406982,0,3.4153442,3.1644897,3.052063,7.2601929C1.2831421,7.8666382,0,9.5279541,0,11.5C0,13.9814453,2.0185547,16,4.5,16 h4.9898682l-0.4801025,2.4018555c-0.0458984,0.2314453,0.0751953,0.4633789,0.2910156,0.5571289 C9.3652344,18.9868164,9.4326172,19,9.5,19c0.1572266,0,0.3105469-0.074707,0.4072266-0.2094727L11.9004517,16H18.5 c3.0322266,0,5.5-2.4672852,5.5-5.5S21.5322266,5,18.5,5z"/><path fill="#FFCE34" d="M10.9902344,13.5981445c0.0292969-0.1469727-0.0087891-0.2993164-0.1035156-0.4150391 S10.6494141,13,10.5,13H8.4716797l3.0810547-4.3139648l-0.5429688,2.7158203 c-0.0292969,0.1469727,0.0087891,0.2993164,0.1035156,0.4150391S11.3505859,12,11.5,12h2.0283203l-3.0810547,4.3139648 L10.9902344,13.5981445z"/><path fill="#BBDEFB" d="M18.5,15h-5.8852539l2.2924805-3.2094727c0.1083984-0.1523438,0.1230469-0.3530273,0.0371094-0.5195312 S14.6874924,11,14.5,11h-2.3896484l0.8798828-4.4018555c0.0458984-0.2314453-0.0751953-0.4633789-0.2910156-0.5571289 c-0.2138672-0.0922852-0.4677734-0.0234375-0.6064453,0.168457l-5,7C6.984375,13.3618164,6.9697266,13.5625,7.0556641,13.7290039 S7.3124924,14,7.5,14h2.3896484l-0.1998901,1H4.5C2.5703125,15,1,13.4296875,1,11.5S2.5703125,8,4.5,8 C4.7763672,8,5,7.7763672,5,7.5S4.7763672,7,4.5,7C4.3547974,7,4.2177734,7.0293579,4.0760498,7.0428467 C4.5331421,3.6106567,7.4650269,1,11,1c2.776062,0,5.2515259,1.6472778,6.3599243,4.137207 c-0.7734985,0.1665649-1.5172729,0.4846191-2.1587524,0.9614258c-0.2207031,0.1650391-0.2675781,0.4780273-0.1025391,0.699707 s0.4794922,0.265625,0.6992188,0.1030273C16.5800781,6.3203125,17.5390625,6,18.5,6c2.4814453,0,4.5,2.0185547,4.5,4.5 S20.9814453,15,18.5,15z"/><path fill="#FFF" d="M4.7774048,7.0950317C5.6000366,4.1429443,8.2994995,2,11.5,2 c2.3882446,0,4.5481567,1.223938,5.812439,3.1499023c0.0159912-0.0036011,0.0314941-0.0092163,0.0474854-0.0126953 C16.2515259,2.6472778,13.776062,1,11,1C7.4650269,1,4.5331421,3.6106567,4.0760498,7.0428467 C4.2177734,7.0293579,4.3547974,7,4.5,7C4.6050415,7,4.6969604,7.0397949,4.7774048,7.0950317z" opacity=".2"/><path d="M22.4356689,8.3632812C22.4657593,8.5731201,22.5,8.7819824,22.5,9c0,2.4814453-2.0185547,4.5-4.5,4.5 h-4.3138428L12.6147461,15H18.5c2.4814453,0,4.5-2.0185547,4.5-4.5C23,9.7226562,22.7839966,9.0019531,22.4356689,8.3632812z" opacity=".1"/><path d="M7.0556641,13.7290039C7.0185547,13.6571045,7.0088501,13.578064,7.008728,13.5H4 c-1.2542725,0-2.3479004-0.6690674-2.9659424-1.6633911C1.2064209,13.6066895,2.6855469,15,4.5,15h5.1897583l0.1998901-1H7.5 C7.3124924,14,7.1416016,13.8955078,7.0556641,13.7290039z" opacity=".1"/><linearGradient id="Pcm6buUaCf3Nz-u0UVL92a" x1="1.523" x2="21.698" y1="7.247" y2="16.655" gradientUnits="userSpaceOnUse"><stop offset="0" stop-color="#fff" stop-opacity=".2"/><stop offset="1" stop-color="#fff" stop-opacity="0"/></linearGradient><path fill="url(#Pcm6buUaCf3Nz-u0UVL92a)" d="M6.7216797,17.0517578c-0.1708984-0.0854492-0.375-0.0654297-0.5253906,0.0512695 l-1.5537109,1.1889648C4.234375,18.5820312,4,19.0214844,4,19.5C4,20.3271484,4.6728516,21,5.5,21S7,20.3271484,7,19.5v-2 C7,17.3095703,6.8916016,17.1357422,6.7216797,17.0517578z M12.2216797,20.0517578 c-0.1708984-0.0849609-0.375-0.0654297-0.5253906,0.0512695l-1.5537109,1.1889648C9.734375,21.581543,9.5,22.0209961,9.5,22.5 c0,0.8271484,0.6728516,1.5,1.5,1.5s1.5-0.6728516,1.5-1.5v-2C12.5,20.3095703,12.3916016,20.1357422,12.2216797,20.0517578z M17.7216797,17.0517578c-0.1708984-0.0854492-0.375-0.0654297-0.5253906,0.0512695l-1.5537109,1.1889648 C15.234375,18.5820312,15,19.0214844,15,19.5c0,0.8271484,0.6728516,1.5,1.5,1.5s1.5-0.6728516,1.5-1.5v-2 C18,17.3095703,17.8916016,17.1357422,17.7216797,17.0517578z M18.5,5c-0.0357056,0-0.0709229,0.0079956-0.1065674,0.008728 C17.190979,2.0044556,14.2753906,0,11,0C6.8406982,0,3.4153442,3.1644897,3.052063,7.2601929 C1.2831421,7.8666382,0,9.5279541,0,11.5C0,13.9814453,2.0185547,16,4.5,16h4.9898682l-0.4801025,2.4018555 c-0.0458984,0.2314453,0.0751953,0.4633789,0.2910156,0.5571289C9.3652344,18.9868164,9.4326172,19,9.5,19 c0.1572266,0,0.3105469-0.074707,0.4072266-0.2094727L11.9004517,16H18.5c3.0322266,0,5.5-2.4672852,5.5-5.5S21.5322266,5,18.5,5z"/></svg>