<svg xmlns="http://www.w3.org/2000/svg"  viewBox="0 0 48 48" width="48px" height="48px"><linearGradient id="SVGID_1_" x1="26.11" x2="16.933" y1="7.199" y2="16.376" gradientUnits="userSpaceOnUse"><stop offset="0" stop-color="#60affe"/><stop offset=".033" stop-color="#6ab4fe"/><stop offset=".197" stop-color="#97cbfe"/><stop offset=".362" stop-color="#bddeff"/><stop offset=".525" stop-color="#daecff"/><stop offset=".687" stop-color="#eef7ff"/><stop offset=".846" stop-color="#fbfdff"/><stop offset="1" stop-color="#fff"/></linearGradient><circle cx="21.521" cy="11.787" r="6.489" fill="url(#SVGID_1_)"/><linearGradient id="SVGID_00000050625743417302539500000017010210470545769345_" x1="42.078" x2="33.796" y1="13.502" y2="21.785" gradientUnits="userSpaceOnUse"><stop offset="0" stop-color="#60affe"/><stop offset=".033" stop-color="#6ab4fe"/><stop offset=".197" stop-color="#97cbfe"/><stop offset=".362" stop-color="#bddeff"/><stop offset=".525" stop-color="#daecff"/><stop offset=".687" stop-color="#eef7ff"/><stop offset=".846" stop-color="#fbfdff"/><stop offset="1" stop-color="#fff"/></linearGradient><circle cx="37.937" cy="17.644" r="5.856" fill="url(#SVGID_00000050625743417302539500000017010210470545769345_)"/><linearGradient id="SVGID_00000020384772518651706010000009217939473069551757_" x1="33.688" x2="25.248" y1="29.144" y2="37.584" gradientUnits="userSpaceOnUse"><stop offset="0" stop-color="#60affe"/><stop offset=".033" stop-color="#6ab4fe"/><stop offset=".197" stop-color="#97cbfe"/><stop offset=".362" stop-color="#bddeff"/><stop offset=".525" stop-color="#daecff"/><stop offset=".687" stop-color="#eef7ff"/><stop offset=".846" stop-color="#fbfdff"/><stop offset="1" stop-color="#fff"/></linearGradient><circle cx="29.468" cy="33.364" r="5.968" fill="url(#SVGID_00000020384772518651706010000009217939473069551757_)"/><line x1="10.106" x2="29.5" y1="28.5" y2="28.5" fill="none" stroke="#2e9bfe" stroke-linecap="round" stroke-linejoin="round" stroke-miterlimit="10" stroke-width="3"/><line x1="2" x2="4.638" y1="28.5" y2="28.5" fill="none" stroke="#2e9bfe" stroke-linecap="round" stroke-linejoin="round" stroke-miterlimit="10" stroke-width="3"/><path fill="none" stroke="#2e9bfe" stroke-linecap="round" stroke-linejoin="round" stroke-miterlimit="10" stroke-width="3" d="M29.5,28.5c3.314,0,6,2.686,6,6s-2.686,6-6,6s-6-2.686-6-6"/><line x1="28.83" x2="38.5" y1="23.5" y2="23.5" fill="none" stroke="#2e9bfe" stroke-linecap="round" stroke-linejoin="round" stroke-miterlimit="10" stroke-width="3"/><line x1="8.021" x2="22.043" y1="23.5" y2="23.5" fill="none" stroke="#2e9bfe" stroke-linecap="round" stroke-linejoin="round" stroke-miterlimit="10" stroke-width="3"/><path fill="none" stroke="#2e9bfe" stroke-linecap="round" stroke-linejoin="round" stroke-miterlimit="10" stroke-width="3" d="M32.5,17.644c0-3.234,2.622-5.856,5.856-5.856c3.234,0,5.856,2.622,5.856,5.856S41.591,23.5,38.356,23.5"/><path fill="none" stroke="#2e9bfe" stroke-linecap="round" stroke-linejoin="round" stroke-miterlimit="10" stroke-width="3" d="M22,5.5c3.59,0,6.5,2.91,6.5,6.5s-2.91,6.5-6.5,6.5"/><path fill="none" stroke="#2e9bfe" stroke-linecap="round" stroke-linejoin="round" stroke-miterlimit="10" stroke-width="3" d="M15.85,9.892c0.267-0.779,0.678-1.492,1.202-2.106"/><line x1="22" x2="5.213" y1="18.5" y2="18.5" fill="none" stroke="#2e9bfe" stroke-linecap="round" stroke-linejoin="round" stroke-miterlimit="10" stroke-width="3"/></svg>